<svg xmlns="http://www.w3.org/2000/svg" width="516.368" height="517.823" viewBox="0 0 516.368 517.823">
  <path id="Path_3" data-name="Path 3" d="M835.108,443.957c-.97-.027-1.887-.027-2.857-.027a126.137,126.137,0,0,0-19.781,1.536A128.682,128.682,0,0,0,703.543,571.021v1.617A128.722,128.722,0,0,0,807.89,699.028c-.512,1.294-1.078,2.533-1.644,3.8A335.784,335.784,0,0,1,704.19,832.237a7.86,7.86,0,0,0,.755.566h-1.536a16.808,16.808,0,0,1-1.375,1.051v-3.261a336.458,336.458,0,0,1-99.927-127.765,332.56,332.56,0,0,1-28.781-131.807h-.054v-4.339a334.591,334.591,0,0,1,23.2-122.752H455.4A468.927,468.927,0,0,0,573.218,869.642c6.171,6.522,12.585,12.882,19.134,19.026a468.515,468.515,0,0,0,102.487,73.086h15.307a468.767,468.767,0,0,0,103.268-73.84c7.465-6.98,14.633-14.229,21.586-21.721q14.957-16.008,28.324-33.363a466.961,466.961,0,0,0,94.4-231.9q1.7-14.835,2.479-29.913c.108-2.345.215-4.662.323-7.034A128.464,128.464,0,0,0,835.108,443.957Zm0,127.064h-.054c.054-1.428.054-2.91.054-4.339Z" transform="translate(-444.16 -443.93)" fill="#7f2dea"/>
</svg>
